<svg width="52" height="70" viewBox="0 0 52 70" fill="none" xmlns="http://www.w3.org/2000/svg">
<g id="Group">
<path id="Vector" opacity="0.999" fill-rule="evenodd" clip-rule="evenodd" d="M16.8188 0C17.0512 1.24724 17.2046 2.50422 17.2791 3.77094C17.267 4.97017 16.9542 6.08552 16.3408 7.11699C15.9445 7.79155 15.496 8.42889 14.9953 9.02902C14.0158 10.067 13.1306 11.1764 12.3397 12.3574C11.7314 13.3411 11.1294 14.3207 10.5339 15.2962C11.3179 14.2948 12.0496 13.2562 12.7291 12.1803C13.2626 11.4519 13.8587 10.7732 14.5172 10.1444C15.2538 9.62242 15.9501 9.04998 16.6063 8.42708C16.7479 8.35627 16.8542 8.25004 16.925 8.10841C16.9368 8.073 16.9604 8.04939 16.9958 8.0376C17.102 8.00219 17.1728 7.93137 17.2082 7.82515C17.8175 7.25632 18.2483 6.57178 18.5006 5.77149C18.8357 4.89302 19.0186 3.9842 19.0495 3.04508C19.0731 3.0687 19.0967 3.09228 19.1203 3.1159C19.142 3.2446 19.1538 3.37444 19.1557 3.50538C19.1537 3.6906 19.1773 3.86764 19.2265 4.0365C19.3862 5.41546 19.156 6.72556 18.536 7.96678C18.4503 8.10289 18.3559 8.23269 18.2528 8.35627C17.8741 8.74682 17.4846 9.12451 17.0843 9.48932C17.0312 9.56605 16.9781 9.64274 16.925 9.71947C17.0851 9.68952 17.2386 9.63049 17.3853 9.54243C18.41 8.90109 19.3896 8.19881 20.3241 7.43566C20.4158 7.40312 20.4866 7.3441 20.5366 7.25862C20.5838 7.18781 20.6428 7.12878 20.7136 7.08158C20.8292 7.02514 20.9236 6.94254 20.9969 6.83373C21.3875 6.4077 21.8006 6.00639 22.2362 5.62986C22.3278 5.59732 22.3987 5.53829 22.4486 5.45282C23.1175 4.81119 23.8729 4.2919 24.7147 3.89487C24.7618 3.89487 24.7855 3.91849 24.7855 3.96569C24.2226 4.50208 23.7446 5.10401 23.3515 5.77149C23.1054 6.16179 22.9696 6.58669 22.9443 7.04617C22.9387 7.10633 22.9445 7.16536 22.962 7.22321C22.9874 7.20395 23.0051 7.18034 23.0151 7.1524C23.1272 7.01084 23.257 6.88691 23.4046 6.78062C23.7942 6.56229 24.1719 6.32623 24.5377 6.07246C25.3135 5.37892 26.1399 4.75337 27.0162 4.19584C27.3898 3.98534 27.7793 3.81421 28.1847 3.68242C28.3497 3.6627 28.5034 3.6155 28.645 3.54079C28.7388 3.54398 28.8217 3.5204 28.8929 3.46998C29.2746 3.36736 29.664 3.30246 30.0613 3.27523C31.512 3.18664 32.9403 3.32236 34.3457 3.68242C34.0153 3.70604 33.6846 3.72962 33.3543 3.75324C32.144 3.82862 30.9989 4.14138 29.9197 4.69155C29.5044 4.94734 29.1503 5.27192 28.8574 5.66527C28.8691 5.67706 28.8812 5.68888 28.8929 5.70067C29.391 5.41667 29.9101 5.1806 30.4508 4.99252C30.6158 4.97279 30.7695 4.92559 30.9111 4.85088C30.949 4.81781 30.9961 4.80599 31.0527 4.81548C31.1466 4.81866 31.2294 4.79508 31.3006 4.74466C32.2088 4.55048 33.1294 4.45605 34.0624 4.4614C34.8467 4.458 35.614 4.55243 36.3639 4.74466C36.234 4.76828 36.1044 4.79186 35.9744 4.81548C35.0128 4.85658 34.1513 5.16347 33.3897 5.73608C33.3617 5.7461 33.338 5.76381 33.3188 5.78919C33.3744 5.81628 33.4215 5.81037 33.4605 5.77149C35.8923 5.35573 38.3 5.46787 40.6837 6.10786C41.1472 6.29836 41.5958 6.51668 42.0292 6.76291C41.9669 6.79694 41.8961 6.80876 41.8167 6.79832C41.2332 6.74152 40.649 6.69433 40.0641 6.65669C39.7751 6.6842 39.4858 6.70782 39.1966 6.7275C39.1594 6.72223 39.124 6.72811 39.0903 6.74521C39.1523 6.79191 39.2231 6.80961 39.3028 6.79832C40.6918 7.10003 42.0136 7.58391 43.2685 8.25004C43.2798 8.30486 43.3152 8.32847 43.3747 8.32086C44.8703 9.11386 46.1748 10.1525 47.2873 11.4368C47.9628 12.2686 48.4525 13.201 48.7567 14.234C48.7535 14.3279 48.7772 14.4105 48.8275 14.4818C48.8604 14.5197 48.8725 14.5669 48.8629 14.6235C48.8725 14.6801 48.8604 14.7273 48.8275 14.7651C48.4961 14.1813 48.0832 13.6561 47.5882 13.1894C47.2968 12.9389 47.0015 12.697 46.703 12.4636C46.6864 12.4138 46.651 12.3902 46.5968 12.3928C46.2951 12.192 45.9885 11.9972 45.6762 11.8085C45.6089 11.7625 45.5381 11.7389 45.4638 11.7377C46.1015 12.3815 46.5734 13.131 46.8801 13.9861C46.8769 14.08 46.9006 14.1626 46.9509 14.234C46.9838 14.2718 46.9959 14.319 46.9863 14.3756C46.7477 14.1545 46.5115 13.9243 46.2781 13.6852C45.6907 13.1614 45.0063 12.8368 44.2245 12.7114C44.1253 12.6711 44.0191 12.6652 43.9058 12.6937C43.9497 12.7217 43.9972 12.7394 44.0474 12.7468C45.4864 13.4359 46.6605 14.4391 47.5705 15.7565C47.6899 15.9481 47.7901 16.1487 47.8715 16.3585C47.8775 16.3936 47.8658 16.4172 47.8361 16.4293C47.2536 15.829 46.6046 15.3156 45.8887 14.889C45.696 14.7747 45.4956 14.6921 45.2867 14.6412C45.7399 15.177 46.2296 15.6787 46.7561 16.146C47.1587 16.584 47.5482 17.0326 47.9246 17.4915C48.4501 18.1644 48.8452 18.9079 49.1108 19.7222C49.1076 19.8161 49.1313 19.8987 49.1816 19.9701C49.5144 21.1113 49.5088 22.2561 49.1639 23.4046C49.0566 23.7802 48.9327 24.146 48.7921 24.5023C48.7581 24.4398 48.7464 24.369 48.7567 24.2898C48.8201 23.6261 48.8024 22.9651 48.7036 22.307C48.5474 21.7111 48.2465 21.2036 47.8007 20.7844C47.784 20.7347 47.7486 20.711 47.6945 20.7136C47.6474 20.7254 47.6474 20.7372 47.6945 20.749C47.8662 21.5568 47.9076 22.3712 47.8184 23.1922C47.7702 23.5338 47.6934 23.8643 47.5882 24.1836C47.5645 24.1718 47.5411 24.16 47.5174 24.1482C47.3988 23.4017 47.1155 22.7289 46.6676 22.1299C46.6577 22.102 46.64 22.0784 46.6145 22.0591C46.5883 22.1034 46.5943 22.1388 46.6322 22.1654C46.6722 22.267 46.696 22.3732 46.703 22.484C46.6998 22.5779 46.7236 22.6605 46.7739 22.7319C47.0564 23.8725 47.1449 25.0291 47.0394 26.2019C46.834 27.7985 46.1556 29.1499 45.0035 30.2561C44.9475 30.2811 44.8944 30.3106 44.8441 30.3446C44.8381 30.3269 44.8324 30.3092 44.8264 30.2915C45.5583 29.1639 45.8355 27.9305 45.6585 26.5913C45.5859 26.1475 45.4857 25.7109 45.3575 25.2812C45.3621 25.2502 45.3505 25.2266 45.3221 25.2104C45.2892 25.2525 45.2775 25.2997 45.2867 25.3521C44.7822 27.7005 43.8438 29.8486 42.4718 31.7963C41.6567 32.883 40.6239 33.6915 39.3736 34.2217C39.0284 34.3552 38.6743 34.4555 38.3114 34.5227C38.2437 34.5326 38.1846 34.5209 38.1343 34.4873C39.0507 34.1505 39.7057 33.5367 40.0995 32.6461C40.1954 32.4412 40.2545 32.2287 40.2765 32.0088C39.5021 32.5702 38.67 33.0364 37.7802 33.4074C37.1861 33.6533 36.5725 33.7418 35.939 33.6729C35.8679 33.6225 35.785 33.5989 35.6912 33.6021C35.4366 33.5046 35.2125 33.363 35.0184 33.1772C35.0018 33.1274 34.9664 33.1038 34.9122 33.1064C34.3588 32.7409 33.7689 32.4576 33.1418 32.2566C33.0565 32.2059 32.9619 32.1882 32.8585 32.2035C32.8777 32.2289 32.9014 32.2466 32.9294 32.2566C32.941 32.2566 32.9531 32.2566 32.9648 32.2566C35.5017 33.9606 37.9449 35.796 40.2942 37.7625C42.1751 39.7394 43.9515 41.799 45.6231 43.9412C46.0834 44.5552 46.526 45.1809 46.9509 45.8178C46.9484 45.872 46.9718 45.9074 47.0217 45.9241C47.0192 45.9782 47.0426 46.0136 47.0925 46.0303C47.2841 46.2597 47.4491 46.5076 47.5882 46.7739C47.5858 46.828 47.6091 46.8634 47.659 46.8801C47.794 47.1389 47.9947 47.3337 48.261 47.4643C49.03 48.1094 49.6911 48.847 50.2438 49.6773C50.2413 49.7315 50.2647 49.7669 50.3146 49.7835C50.7133 50.3568 51.0083 50.9821 51.1998 51.6601C51.1967 51.754 51.2204 51.8368 51.2707 51.908C51.4647 52.5719 51.5118 53.2446 51.4123 53.9263C51.3886 53.8908 51.3652 53.8554 51.3415 53.82C51.1828 53.0959 50.805 52.5117 50.2084 52.0673C49.9754 51.8949 49.7336 51.7356 49.4826 51.5893C49.6769 53.5396 49.3937 55.4162 48.6328 57.2192C48.2227 58.2042 47.7391 59.1486 47.181 60.0518C46.8114 60.6145 46.4516 61.181 46.1011 61.7514C46.0894 61.7514 46.0774 61.7514 46.0657 61.7514C45.951 61.9206 45.827 62.0856 45.6939 62.2471C45.6702 62.2708 45.6702 62.2942 45.6939 62.3179C45.86 62.0991 46.031 61.8867 46.2073 61.6806C47.5263 60.0589 48.5945 58.2768 49.4117 56.334C49.8352 55.1372 49.9591 53.91 49.7835 52.6516C49.775 52.6059 49.7871 52.5705 49.8189 52.5453C50.2102 53.1037 50.4991 53.7173 50.6864 54.3866C51.0469 55.8362 51.1177 57.2996 50.8989 58.7771C50.8433 59.0473 50.7664 59.3072 50.6687 59.5561C50.645 59.3199 50.6216 59.0841 50.5979 58.8479C50.4973 58.2747 50.2849 57.7436 49.9606 57.2546C49.9506 57.2266 49.9329 57.2029 49.9075 57.1838C49.8901 57.2415 49.8841 57.3006 49.8897 57.3608C49.8628 58.5403 49.621 59.6733 49.1639 60.76C49.0226 61.09 48.8456 61.397 48.6328 61.6806C48.2543 62.1359 47.8471 62.5608 47.4112 62.9553C47.3875 62.9553 47.3758 62.9436 47.3758 62.9199C47.7115 62.3664 47.9891 61.7882 48.2079 61.1849C47.653 61.7631 47.0985 62.3416 46.5437 62.9199C46.0126 63.4984 45.564 64.1358 45.1982 64.8319C44.5216 65.8665 43.8017 66.8696 43.0383 67.8416C42.8156 68.0869 42.5854 68.3231 42.3479 68.5497C42.3008 68.5497 42.277 68.526 42.277 68.4789C42.816 67.5548 43.2702 66.5867 43.6403 65.5755C43.7001 65.3403 43.7532 65.1042 43.7996 64.8673C43.8449 64.8244 43.8449 64.7774 43.7996 64.7257C43.778 64.7299 43.7663 64.742 43.7642 64.7611C43.4395 65.0004 43.0854 65.1952 42.7019 65.3453C41.5427 66.4907 40.268 67.4822 38.8779 68.3196C38.6679 68.4304 38.4555 68.531 38.2405 68.6205C38.1935 68.5734 38.1935 68.526 38.2405 68.4789C38.4859 68.2615 38.7458 68.0607 39.0195 67.877C39.1233 67.8324 39.2058 67.7615 39.2674 67.6645C39.3014 67.6341 39.3014 67.6103 39.2674 67.5937C37.349 68.5734 35.3307 69.2759 33.2126 69.7005C32.3455 69.852 31.472 69.9462 30.5924 69.9837C29.5653 70.0103 28.5384 70.0043 27.5119 69.966C27.5357 69.9423 27.559 69.9189 27.5828 69.8952C27.7244 69.8835 27.866 69.8715 28.0077 69.8598C28.1489 69.8733 28.2789 69.8499 28.3971 69.789C28.8808 69.6945 29.3648 69.6003 29.8489 69.5057C29.965 69.5086 30.0712 69.4848 30.1675 69.4349C30.6562 69.2919 31.1519 69.1623 31.6547 69.0454C31.8112 69.0327 31.9528 68.9856 32.0796 68.9038C35.4132 67.8862 38.47 66.3459 41.2502 64.2831C41.5643 64.0101 41.883 63.7445 42.2062 63.4864C42.2859 63.4659 42.345 63.4188 42.3833 63.3448C44.5254 61.3389 45.8001 58.872 46.2073 55.9445C46.247 55.8811 46.253 55.8103 46.225 55.7321C46.1971 55.776 46.1794 55.8234 46.1719 55.8737C45.9471 56.5358 45.6461 57.1615 45.269 57.7503C45.1451 57.9408 44.9978 58.1058 44.8264 58.246C44.7967 58.234 44.785 58.2103 44.791 58.1752C45.0243 57.5754 45.2191 56.9614 45.3752 56.334C45.4698 55.8903 45.5112 55.4421 45.4992 54.9885C45.5229 54.9885 45.5346 54.9768 45.5346 54.9531C45.5399 54.9159 45.5339 54.8805 45.5169 54.8469C45.4889 54.8908 45.4712 54.9382 45.4638 54.9885C45.2729 55.5122 45.0428 56.0196 44.7733 56.511C44.7032 56.6456 44.6147 56.7635 44.5077 56.8651C44.478 56.8531 44.4663 56.8293 44.4723 56.7943C44.7885 55.4552 44.9889 54.0976 45.0743 52.7224C45.115 52.5754 45.1207 52.4221 45.092 52.2621C45.0704 52.3205 45.0527 52.3796 45.0389 52.4391C44.8855 53.0287 44.6377 53.5715 44.2953 54.0679C44.2312 54.0176 44.2078 53.9468 44.2245 53.8554C44.2482 53.5484 44.2716 53.2418 44.2953 52.9348C44.3413 52.4972 44.3296 52.0603 44.2599 51.6247C44.2599 51.6131 44.2599 51.601 44.2599 51.5893C44.2712 51.4689 44.2595 51.351 44.2245 51.2352C44.1962 51.2515 44.1845 51.2749 44.1891 51.3061C44.0489 51.976 43.7833 52.59 43.3924 53.1473C43.3184 53.239 43.2299 53.3098 43.1268 53.3597C43.0971 53.3477 43.0854 53.324 43.0914 53.2889C43.294 52.2419 43.3177 51.1913 43.1622 50.1376C43.1668 50.1064 43.1552 50.0831 43.1268 50.0668C43.0932 50.1217 43.0812 50.1804 43.0914 50.2438C43.0149 50.8033 42.8854 51.3464 42.7019 51.8726C42.6764 51.8875 42.6587 51.9108 42.6488 51.9434C42.6428 51.7246 42.6251 51.5121 42.5957 51.3061C42.55 50.7849 42.4615 50.2654 42.3302 49.7481C42.1453 49.0786 41.9385 48.4178 41.7105 47.7653C41.6914 47.6913 41.6617 47.6205 41.622 47.5528C41.5993 47.6155 41.6054 47.6743 41.6397 47.7299C41.6397 47.7536 41.6514 47.7653 41.6751 47.7653C41.7116 48.3194 41.7176 48.8742 41.6928 49.4294C41.6709 49.7665 41.6178 50.0969 41.5335 50.4209C41.5098 50.4092 41.4864 50.3971 41.4627 50.3855C41.3412 49.5806 41.1582 48.79 40.9138 48.0131C40.8062 47.6442 40.6175 47.3255 40.3473 47.0571C40.3887 47.3407 40.4419 47.624 40.5067 47.9069C40.5141 47.9664 40.4907 48.0018 40.4358 48.0131C39.9068 47.4165 39.4936 46.7438 39.1966 45.9949C39.1891 45.9446 39.1714 45.8972 39.1434 45.8532C39.1151 45.9666 39.1208 46.0728 39.1612 46.1719C39.1612 46.1956 39.1612 46.219 39.1612 46.2427C39.1537 46.349 39.1774 46.4431 39.232 46.526C39.3853 46.9073 39.5563 47.2851 39.7454 47.659C39.9727 47.9841 40.2089 48.3028 40.4535 48.6151C40.9878 49.57 41.0703 50.5614 40.7014 51.5893C40.6564 51.7441 40.5799 51.8797 40.4712 51.9965C40.4323 52.0117 40.4086 51.994 40.4004 51.9434C40.3077 51.1733 39.9773 50.5303 39.409 50.0137C38.6626 49.3926 37.8249 48.9383 36.895 48.6505C36.8239 48.6002 36.741 48.5765 36.6472 48.5797C36.576 48.5294 36.4932 48.5057 36.3993 48.5088C36.1975 48.4671 35.9967 48.42 35.7974 48.3672C35.6961 48.3212 35.5899 48.3212 35.4787 48.3672C35.483 48.3888 35.495 48.4005 35.5141 48.4026C35.8349 49.974 36.7201 51.095 38.1697 51.7664C38.1811 51.8213 38.2165 51.8446 38.276 51.8372C38.311 51.8312 38.3347 51.8428 38.3468 51.8726C38.2965 51.9062 38.2374 51.9179 38.1697 51.908C37.4375 51.7246 36.7647 51.4176 36.1515 50.9874C36.1348 50.9375 36.0994 50.9141 36.0453 50.9166C35.7064 50.6956 35.3994 50.4361 35.1246 50.1376C35.1239 50.0834 35.1006 50.0657 35.0538 50.0845C35.074 50.1195 35.0974 50.1493 35.1246 50.173C35.5063 50.9031 36.0021 51.5465 36.6118 52.1027C37.2527 52.3279 37.89 52.5641 38.5238 52.8109C38.8627 52.9628 39.1934 53.1221 39.5152 53.2889C39.465 53.3225 39.4058 53.3342 39.3382 53.3243C38.6052 53.2022 37.8734 53.0722 37.1429 52.9348C37.0916 52.8955 37.0328 52.8895 36.9659 52.9171C36.985 52.9426 37.0087 52.9603 37.0367 52.9702C37.5536 53.2864 37.9785 53.6996 38.3114 54.2095C38.3089 54.2637 38.3323 54.2991 38.3822 54.3157C38.5256 54.4485 38.6435 54.6022 38.7363 54.776C38.7338 54.8302 38.7571 54.8656 38.8071 54.8823C39.6374 55.9063 40.1628 57.0747 40.3827 58.3876C40.5006 59.1804 40.4061 59.9477 40.0995 60.6892C39.5655 61.9366 38.8042 63.0225 37.8157 63.9467C37.7859 63.9347 37.7742 63.9109 37.7802 63.8759C38.2289 63.1022 38.5419 62.2761 38.7186 61.3973C38.8396 60.3029 38.6509 59.2643 38.152 58.2814C37.7006 57.3895 37.1695 56.5517 36.5587 55.7675C35.7191 54.7509 34.8927 53.7241 34.0801 52.687C33.2778 51.5306 32.8408 50.2442 32.77 48.8275C32.7176 48.1675 32.7056 47.5064 32.7346 46.8447C32.753 46.5564 32.7941 46.2732 32.8585 45.9949C32.9088 45.9237 32.9325 45.8409 32.9294 45.747C33.089 45.0258 33.5433 44.6834 34.2926 44.7202C35.0262 44.768 35.705 44.9865 36.3285 45.3752C37.195 45.8869 37.9796 46.5065 38.6831 47.2342C38.8191 47.4123 38.9551 47.5893 39.0903 47.7653C39.1091 47.8375 39.1505 47.8966 39.2143 47.9423C39.2405 47.8981 39.2344 47.8626 39.1966 47.8361C39.1966 47.8124 39.1849 47.8007 39.1612 47.8007C39.0776 47.4445 38.9537 47.1024 38.7894 46.7739C38.6902 46.6393 38.5783 46.5154 38.453 46.4021C37.6443 45.8582 36.8416 45.3094 36.0453 44.7556C36.0286 44.7057 35.9932 44.6823 35.939 44.6848C35.0889 44.136 34.2628 43.5517 33.4605 42.9321C33.0774 42.6375 32.7116 42.3245 32.3628 41.9938C32.3462 41.9439 32.3108 41.9205 32.2566 41.923C30.1806 40.0775 28.31 38.0472 26.6445 35.8328C26.426 35.6143 26.2079 35.3962 25.9894 35.1778C25.4579 34.7214 24.8443 34.5443 24.1482 34.6466C23.8058 34.6927 23.4753 34.7812 23.1568 34.9122C23.1155 38.6538 23.1096 42.395 23.1391 46.1365C23.1764 47.1899 23.2531 48.2404 23.3692 49.2878C23.3672 49.473 23.3909 49.65 23.44 49.8189C23.6079 50.918 23.8085 52.0156 24.042 53.1119C24.0347 53.2181 24.0583 53.3123 24.1128 53.3951C24.1875 53.6115 24.2466 53.8356 24.2898 54.0679C24.2909 54.189 24.3263 54.2952 24.3961 54.3866C24.7816 55.743 25.5015 56.8821 26.5559 57.8034C28.0792 58.9931 29.5663 58.952 31.0173 57.6795C31.0471 57.6915 31.0588 57.7153 31.0527 57.7503C30.7401 58.2103 30.4625 58.6939 30.2207 59.202C29.0802 62.4585 30.2249 64.1698 33.6552 64.3362C33.9084 64.311 34.1623 64.2994 34.4165 64.3008C34.4622 64.2923 34.4976 64.3043 34.5227 64.3362C32.3674 64.6297 30.2076 64.6591 28.0431 64.4247C26.3782 64.2416 24.844 63.7045 23.44 62.8136C23.4233 62.7637 23.3879 62.7403 23.3338 62.7428C23.3171 62.6929 23.2817 62.6695 23.2276 62.672C23.2108 62.6221 23.1754 62.5987 23.1214 62.6012C23.1046 62.5513 23.0692 62.5279 23.0151 62.5304C21.7316 61.6303 20.628 60.5447 19.7045 59.2728C19.2673 58.6107 18.8483 57.938 18.4475 57.2546C15.5417 59.7193 12.2015 60.5985 8.42708 59.8925C7.93201 59.8089 7.44809 59.6967 6.97536 59.5561C6.90401 59.5058 6.8214 59.4821 6.7275 59.4853C6.65616 59.435 6.57355 59.4113 6.47965 59.4145C5.99116 59.2877 5.51907 59.1227 5.06333 58.9188C5.11358 58.8851 5.17256 58.8734 5.24037 58.8834C6.30328 59.0236 7.35369 58.9648 8.39167 58.7063C8.5759 58.6883 8.74115 58.6291 8.88739 58.5293C10.3503 57.9812 11.3948 56.9897 12.021 55.555C12.0741 55.5019 12.1272 55.4488 12.1803 55.3957C12.6044 55.396 12.9821 55.2661 13.3134 55.0062C13.6896 54.6716 14.0201 54.2998 14.3048 53.8908C14.3546 53.8742 14.3782 53.8388 14.3756 53.7846C14.9166 52.8442 15.3415 51.8528 15.6503 50.8104C15.7007 50.7392 15.7243 50.6563 15.7211 50.5625C15.74 50.4046 15.7754 50.2509 15.8273 50.1022C15.8819 50.0193 15.9054 49.9252 15.8982 49.8189C16.0784 48.8909 16.2318 47.9586 16.3585 47.0217C16.4204 46.8914 16.444 46.7498 16.4293 46.5968C16.4575 46.231 16.4869 45.8653 16.5178 45.4992C16.5781 40.7191 16.5781 35.939 16.5178 31.159C16.5216 29.3665 16.3918 27.5843 16.1283 25.8124C15.9816 24.8287 15.6276 23.9317 15.0661 23.1214C14.6085 22.5651 14.0243 22.2346 13.3134 22.1299C13.0385 22.1449 12.7906 22.2334 12.5698 22.3955C12.1608 22.7588 11.8717 23.2014 11.7023 23.7233C11.6974 24.458 11.9275 25.1072 12.3928 25.6707C12.3928 25.6944 12.381 25.7061 12.3574 25.7061C12.2988 25.7005 12.2516 25.6769 12.2157 25.6353C12.199 25.5855 12.1636 25.5619 12.1095 25.5645C11.1777 24.8932 10.8295 23.9962 11.065 22.8735C10.7498 23.1497 10.5433 23.4919 10.4453 23.9003C10.4217 23.9475 10.3981 23.9948 10.3745 24.042C10.3098 23.9487 10.2685 23.8424 10.2506 23.7233C10.2329 23.5703 10.227 23.4169 10.2329 23.263C10.273 23.1757 10.279 23.0812 10.2506 22.9797C10.2226 23.0238 10.2049 23.071 10.1975 23.1214C10.05 23.7843 10.1208 24.4216 10.4099 25.0334C10.4099 25.057 10.3981 25.0688 10.3745 25.0688C10.0169 24.7316 9.78671 24.3185 9.68406 23.8295C9.46854 22.1986 10.1354 21.1128 11.6846 20.572C11.8143 20.5641 11.9323 20.5287 12.0387 20.4658C12.3991 20.3867 12.765 20.3336 13.1363 20.3064C13.5446 20.1495 13.9223 19.937 14.2694 19.6691C14.619 19.3607 14.9731 19.0597 15.3316 18.7662C15.4233 18.7337 15.4941 18.6746 15.5441 18.5892C17.231 16.9012 19.2375 15.7504 21.5634 15.1369C22.427 14.9498 23.3004 14.8495 24.1836 14.8359C24.5377 14.8359 24.8918 14.8359 25.2458 14.8359C25.2543 14.7902 25.2423 14.7548 25.2104 14.7297C24.9229 14.0074 24.5572 13.3287 24.1128 12.6937C22.5481 12.4153 20.9901 12.4447 19.4389 12.7823C19.3724 12.7785 19.3606 12.7962 19.4035 12.8354C19.4972 12.853 19.5917 12.8589 19.6868 12.8531C20.012 12.9154 20.307 13.0452 20.572 13.2426C20.5606 13.2974 20.5252 13.321 20.4658 13.3134C19.5269 13.1951 18.5945 13.2306 17.6685 13.4196C17.602 13.4158 17.5902 13.4335 17.6331 13.4727C17.7149 13.4903 17.7975 13.4962 17.881 13.4904C18.6389 13.5442 19.3707 13.7094 20.0763 13.9861C19.8587 14.0212 19.6345 14.033 19.4035 14.0215C18.5587 14.0364 17.7207 14.119 16.8896 14.2694C16.8133 14.2649 16.7425 14.2826 16.6771 14.3225C16.7107 14.3396 16.7461 14.3455 16.7833 14.3402C17.3664 14.367 17.9211 14.4968 18.4475 14.7297C18.385 14.7637 18.3142 14.7755 18.2351 14.7651C16.9624 14.7353 15.7349 14.9536 14.5527 15.4201C14.2957 15.5476 14.0478 15.6892 13.8091 15.845C13.3974 16.1741 12.9961 16.5163 12.6052 16.8719C12.1508 17.1523 11.6905 17.4237 11.2243 17.6863C11.2453 17.7027 11.269 17.7086 11.2951 17.704C11.409 17.7094 11.5034 17.674 11.5784 17.5977C11.8931 17.4672 12.1999 17.3197 12.499 17.1551C12.9507 16.7505 13.4227 16.3729 13.9153 16.0221C14.4431 15.7163 15.0097 15.5156 15.6149 15.4201C16.273 15.2999 16.9339 15.2763 17.5977 15.3493C17.7533 15.3853 17.9068 15.4266 18.058 15.4733C17.881 15.4969 17.704 15.5205 17.5269 15.5441C16.3328 15.6372 15.1997 15.95 14.1278 16.4824C13.9373 16.5892 13.7603 16.7131 13.5966 16.8542C13.5523 16.8886 13.5641 16.9122 13.632 16.925C13.7001 16.9143 13.7591 16.8907 13.8091 16.8542C13.8209 16.8542 13.8327 16.8542 13.8445 16.8542C13.9384 16.8574 14.021 16.8338 14.0923 16.7833C14.7447 16.6216 15.4057 16.5803 16.0752 16.6594C16.2614 16.696 16.4384 16.7491 16.6063 16.8188C16.5317 16.853 16.4491 16.8649 16.3585 16.8542C15.1605 16.8881 14.0274 17.1773 12.9593 17.7217C12.1203 18.3062 11.1997 18.7193 10.1975 18.9609C9.45689 19.2656 8.88445 19.7554 8.4802 20.4304C8.99113 19.8015 9.62256 19.3353 10.3745 19.0318C10.7797 18.901 11.181 18.7593 11.5784 18.6069C12.0756 18.3584 12.5595 18.0928 13.0301 17.8102C13.124 17.8134 13.2066 17.7898 13.278 17.7394C13.5569 17.7079 13.8283 17.7433 14.0923 17.8456C13.8799 17.8692 13.6675 17.8928 13.455 17.9164C12.8572 18.1032 12.3143 18.3924 11.8262 18.7839C11.2116 19.0989 10.5743 19.3586 9.91422 19.5629C8.94946 20.0319 8.28258 20.7696 7.91367 21.7759C7.47079 22.9574 7.31733 24.173 7.45337 25.4229C7.50729 26.0962 7.85546 26.5329 8.4979 26.733C8.52152 26.7566 8.5451 26.7802 8.56872 26.8038C8.21269 26.9164 7.87044 26.8809 7.54189 26.6976C7.53009 26.7094 7.51827 26.7212 7.50648 26.733C7.70515 27.2267 8.01203 27.6398 8.42708 27.9722C8.42708 28.0194 8.40347 28.0431 8.35627 28.0431C8.17923 27.9664 8.01398 27.872 7.86056 27.7598C7.84381 27.71 7.8084 27.6864 7.75433 27.689C7.28872 27.3588 6.96413 26.9221 6.78062 26.3789C6.71677 26.8305 6.8407 27.22 7.1524 27.5474C7.1524 27.571 7.14061 27.5828 7.11699 27.5828C6.72286 27.4246 6.46318 27.1413 6.33802 26.733C6.33589 26.7137 6.3241 26.702 6.30261 26.6976C6.25629 26.8326 6.25629 26.9625 6.30261 27.0871C6.39106 27.4174 6.54448 27.7125 6.76291 27.9722C6.76291 28.0194 6.73929 28.0431 6.6921 28.0431C6.26702 27.8186 5.98376 27.4763 5.84231 27.0162C5.8524 26.9529 5.84061 26.8939 5.8069 26.8392C5.77864 26.8554 5.76685 26.879 5.77149 26.91C5.74299 27.7913 6.07348 28.5054 6.76291 29.0522C7.14903 29.3278 7.56214 29.5462 8.00219 29.7072C7.93969 29.7413 7.86888 29.7531 7.78974 29.7426C7.72193 29.7527 7.66294 29.7409 7.6127 29.7072C7.54135 29.6568 7.45875 29.6332 7.36485 29.6364C6.46913 29.4073 5.82588 28.8761 5.43511 28.0431C5.36561 27.8478 5.32429 27.6471 5.31119 27.4411C5.31204 27.2738 5.31791 27.1085 5.32889 26.9454C5.27496 27.0187 5.24543 27.1013 5.24037 27.1933C5.05016 28.3296 5.41603 29.2443 6.33802 29.9374C6.98662 30.3562 7.69478 30.61 8.46249 30.6987C8.23308 30.7337 7.99702 30.7455 7.75433 30.7341C7.53112 30.7362 7.31867 30.7008 7.11699 30.6278C7.04564 30.5774 6.96304 30.5538 6.86913 30.557C5.18492 30.023 4.45906 28.8781 4.69155 27.1225C4.73825 26.9818 4.80319 26.852 4.88629 26.733C4.9262 26.7109 4.9616 26.6815 4.99252 26.6445C4.93947 26.6237 4.90407 26.6414 4.88629 26.6976C4.45881 26.9856 4.21096 27.3869 4.14273 27.9014C4.11911 27.9959 4.09553 28.0903 4.07191 28.1847C3.89267 27.6562 3.88676 27.1251 4.05421 26.5913C4.28213 26.0964 4.6657 25.8014 5.20496 25.7061C4.96228 25.5229 4.77345 25.2986 4.63844 25.0334C4.63235 24.9983 4.64417 24.9747 4.67384 24.9626C4.8239 25.0946 4.98915 25.2067 5.16956 25.299C5.26473 25.3128 5.35916 25.3305 5.45282 25.3521C5.54541 25.3248 5.63981 25.313 5.73608 25.3167C5.7671 25.3213 5.79072 25.3095 5.8069 25.2812C5.77769 25.2499 5.74228 25.2381 5.70067 25.2458C5.40162 25.17 5.14785 25.0165 4.9394 24.7855C4.89968 24.718 4.87018 24.6472 4.85088 24.5731C4.88813 24.5109 4.94716 24.4873 5.02792 24.5023C5.2869 24.5494 5.54654 24.5789 5.8069 24.5908C5.58531 24.4342 5.40828 24.2395 5.27578 24.0066C5.28789 23.9769 5.31147 23.9651 5.34659 23.9712C5.56988 24.0276 5.79412 24.0748 6.01934 24.1128C6.05833 24.1517 6.10553 24.1576 6.16098 24.1305C6.14171 24.1051 6.1181 24.0874 6.09016 24.0774C5.85165 23.9216 5.66279 23.7209 5.52363 23.4754C5.51602 23.416 5.53964 23.3806 5.59445 23.3692C5.66856 23.3885 5.73937 23.418 5.8069 23.4577C5.90133 23.4814 5.99573 23.4814 6.09016 23.4577C5.87584 23.318 5.74603 23.1232 5.70067 22.8735C5.69228 22.8278 5.70407 22.7924 5.73608 22.7673C5.91362 22.9031 6.11427 22.9563 6.33802 22.9266C6.14727 22.7777 6.00564 22.5948 5.91312 22.3778C5.90363 22.3212 5.91546 22.274 5.94853 22.2362C6.09876 22.3394 6.26401 22.3807 6.44424 22.3601C6.23101 22.2235 6.11296 22.0287 6.09016 21.7759C6.08439 21.6924 6.09027 21.6098 6.10786 21.528C6.13162 21.5546 6.16112 21.5665 6.19638 21.5634C6.27202 21.5954 6.34283 21.6367 6.40883 21.6873C6.48864 21.7281 6.57125 21.7399 6.65669 21.7228C6.51966 21.604 6.43705 21.4565 6.40883 21.2802C6.40883 21.1385 6.40883 20.9969 6.40883 20.8553C6.44424 20.8553 6.47965 20.8553 6.51506 20.8553C6.57992 20.8817 6.63895 20.9172 6.6921 20.9615C6.69422 20.9807 6.70601 20.9925 6.7275 20.9969C6.77421 20.7435 6.77421 20.4957 6.7275 20.2533C6.66749 19.9163 6.46683 19.7688 6.12557 19.8107C5.82942 19.9242 5.68779 20.1426 5.70067 20.4658C5.70829 20.5252 5.68467 20.5606 5.62986 20.572C5.54258 20.5625 5.45994 20.5389 5.382 20.5012C5.35361 20.4521 5.32999 20.4581 5.31119 20.5189C5.31367 20.546 5.32546 20.5637 5.34659 20.572C5.38664 20.75 5.44567 20.9211 5.52363 21.0854C5.30584 21.0741 5.1111 20.9974 4.9394 20.8553C4.96769 20.9948 5.02672 21.1246 5.11644 21.2447C5.22164 21.3354 5.32195 21.4298 5.41741 21.528C5.39971 21.5398 5.382 21.5516 5.3643 21.5634C5.22083 21.5409 5.08511 21.5055 4.95711 21.4572C4.88534 21.401 4.80269 21.3833 4.70925 21.4041C4.72851 21.4295 4.75213 21.4472 4.78007 21.4572C4.88502 21.6212 5.01486 21.7628 5.16956 21.8821C4.90754 21.977 4.65377 21.9534 4.40829 21.8113C4.53887 22.1307 4.76902 22.3609 5.09874 22.5017C4.71711 22.5927 4.35121 22.5396 4.00109 22.3424C3.9893 22.3542 3.97748 22.366 3.96569 22.3778C4.13819 22.6292 4.32702 22.8653 4.53221 23.086C4.5383 23.1211 4.52648 23.1447 4.4968 23.1568C4.12913 23.0616 3.81046 22.8846 3.54079 22.6257C3.51877 22.5858 3.48927 22.5503 3.45227 22.5194C3.43995 22.5775 3.45765 22.6247 3.50538 22.6611C3.63823 23.0057 3.83889 23.3007 4.10732 23.5463C4.0695 23.5793 4.0223 23.5912 3.96569 23.5817C3.89434 23.5312 3.81173 23.5077 3.71783 23.5109C3.51002 23.4366 3.33298 23.3186 3.18671 23.1568C3.1523 23.1125 3.12868 23.1243 3.1159 23.1922C3.12655 23.2602 3.15014 23.3192 3.18671 23.3692C3.2776 23.6101 3.39562 23.8343 3.54079 24.042C3.54079 24.0656 3.529 24.0774 3.50538 24.0774C3.15191 23.972 2.88043 23.7595 2.691 23.44C2.65658 23.3957 2.63297 23.4075 2.62019 23.4754C2.62171 23.5079 2.6335 23.5315 2.65559 23.5463C2.72244 23.8688 2.86408 24.1521 3.08049 24.3961C3.08049 24.4197 3.0687 24.4315 3.04508 24.4315C2.97239 24.4349 2.91336 24.4113 2.86804 24.3606C2.85129 24.3109 2.81589 24.2872 2.76182 24.2898C2.55156 24.1445 2.36861 23.9675 2.21299 23.7587C2.19657 23.7797 2.19065 23.8034 2.19529 23.8295C2.20106 23.913 2.19518 23.9956 2.17759 24.0774C2.16403 24.0971 2.14632 24.1089 2.12447 24.1128C1.99839 23.9675 1.89808 23.8023 1.82351 23.6171C1.72051 23.7195 1.59658 23.749 1.45172 23.7056C1.1851 23.4684 0.925421 23.2264 0.67275 22.9797C0.656002 22.93 0.620594 22.9063 0.566527 22.9089C0.29555 22.7853 0.106719 22.5847 0 22.307C0.0171374 22.1429 0.0820401 22.0013 0.194744 21.8821C0.271154 21.8115 0.359674 21.7643 0.460303 21.7405C0.554205 21.7436 0.636811 21.7201 0.708158 21.6696C0.731775 21.6696 0.755357 21.6696 0.778974 21.6696C0.861581 21.6696 0.944223 21.6696 1.02683 21.6696C1.02683 21.6342 1.02683 21.5988 1.02683 21.5634C1.07495 21.4083 1.15168 21.2666 1.25698 21.1385C1.57749 20.8633 1.91387 20.6095 2.26611 20.3773C2.44701 20.2334 2.54732 20.0505 2.56707 19.8284C2.39088 19.5595 2.28466 19.2645 2.2484 18.9432C2.21388 18.561 2.23158 18.1833 2.30151 17.8102C2.35194 17.7388 2.37552 17.6562 2.37233 17.5623C2.52788 16.9602 2.76985 16.3937 3.09819 15.8627C3.60006 15.0894 4.14297 14.3458 4.72696 13.632C5.67529 12.3644 6.01166 10.9481 5.73608 9.3831C5.72603 9.31529 5.73782 9.2563 5.77149 9.20606C6.43429 10.8477 6.28675 12.4175 5.32889 13.9153C4.92145 14.5414 4.49656 15.1551 4.05421 15.7565C3.4112 16.6887 3.00401 17.7155 2.83263 18.837C2.79291 18.9003 2.78699 18.9711 2.81493 19.0495C2.85172 19.0231 2.86942 18.9877 2.86804 18.9432C3.19673 17.5662 3.78096 16.3152 4.62073 15.19C5.12671 14.5541 5.646 13.9286 6.17868 13.3134C7.33985 11.7347 8.23092 10.0116 8.85198 8.14382C8.9024 8.07247 8.92598 7.98987 8.92279 7.89596C9.08641 7.28011 9.19264 6.65456 9.24146 6.01934C9.26501 5.9019 9.27684 5.77797 9.27687 5.64756C9.28303 5.45562 9.25942 5.2727 9.20606 5.09874C9.11775 4.3972 8.92892 3.72445 8.63953 3.08049C8.63114 3.03478 8.64293 2.99937 8.67494 2.97426C9.90844 4.73167 10.174 6.63187 9.47162 8.67494C8.58185 11.0462 7.33075 13.1943 5.71838 15.1192C5.25581 15.5581 4.81912 16.0184 4.40829 16.5001C4.24927 16.7827 4.11943 17.0778 4.0188 17.3853C3.97263 17.595 3.95492 17.8075 3.96569 18.0226C3.97581 18.1088 3.99939 18.1088 4.0365 18.0226C4.37815 17.3865 4.73815 16.761 5.11644 16.146C5.51638 15.6458 5.94715 15.1737 6.40883 14.7297C6.5005 14.6972 6.57132 14.6381 6.62128 14.5527C7.23175 14.019 7.74516 13.4053 8.16152 12.7114C8.92308 11.3537 9.66664 9.98454 10.3922 8.60412C10.7206 8.053 11.057 7.51009 11.4013 6.97536C11.4511 6.95861 11.4747 6.9232 11.4722 6.86913C11.4722 6.84552 11.484 6.83373 11.5076 6.83373C11.5616 6.83114 11.597 6.85476 11.6138 6.90454C11.2096 8.10211 10.7375 9.27057 10.1975 10.4099C10.1857 10.4099 10.1739 10.4099 10.1621 10.4099C10.1143 10.4463 10.0966 10.4935 10.109 10.5516C10.146 10.5206 10.1755 10.4852 10.1975 10.4453C10.2919 10.4217 10.3509 10.3627 10.3745 10.2683C11.3763 9.22404 12.1612 8.03197 12.7291 6.6921C13.3138 5.22808 13.3492 3.75274 12.8354 2.26611C12.6348 1.79427 12.4165 1.33397 12.1803 0.885198C12.1757 0.859035 12.1816 0.835428 12.198 0.814382C12.2231 0.845559 12.2526 0.869165 12.2865 0.885198C13.6754 2.22511 14.2124 3.85387 13.8976 5.77149C13.7458 6.69896 13.4389 7.57237 12.977 8.39167C12.4901 9.16488 11.9944 9.93203 11.4899 10.6932C11.2597 11.1063 11.0296 11.5194 10.7994 11.9325C10.8053 11.9443 10.8112 11.9561 10.8171 11.9679C11.5158 11.34 12.165 10.6673 12.7646 9.94962C13.0725 9.54176 13.3853 9.14045 13.7029 8.74575C13.7526 8.72901 13.7763 8.6936 13.7737 8.63953C14.8292 7.35578 15.6494 5.92767 16.2345 4.35517C16.6843 3.04636 16.8673 1.70087 16.7833 0.318671C16.7724 0.204902 16.7842 0.0986783 16.8188 0ZM11.1889 9.87881C11.073 10.1816 10.9373 10.4766 10.7817 10.764C10.0821 11.9151 9.40937 13.0836 8.76346 14.2694C8.39585 14.8143 7.91193 15.2156 7.31173 15.4733C7.28812 15.4496 7.28812 15.4261 7.31173 15.4024C7.80999 14.9751 8.25851 14.5029 8.65723 13.9861C9.45763 12.5851 10.3015 11.216 11.1889 9.87881ZM20.1117 10.1267C20.0566 10.2485 19.9917 10.3665 19.917 10.4807C18.596 12.0148 17.103 13.3426 15.4378 14.4641C14.844 14.7315 14.2657 15.0266 13.7029 15.3493C13.3046 15.6294 12.927 15.9363 12.5698 16.2699C12.1923 16.5533 11.7909 16.8012 11.3659 17.0135C11.272 17.0468 11.1775 17.0763 11.0827 17.102C11.0827 17.0902 11.0827 17.0784 11.0827 17.0666C11.7935 16.5508 12.4899 16.0138 13.1717 15.4556C14.0568 14.8713 14.9538 14.3048 15.8627 13.756C16.74 13.1872 17.5663 12.5498 18.3413 11.8439C18.9375 11.2772 19.5277 10.7048 20.1117 10.1267ZM15.1192 10.5161C15.131 10.5161 15.1428 10.5161 15.1546 10.5161C15.086 10.9958 14.9267 11.4443 14.6766 11.8617C14.1991 12.5812 13.6385 13.2303 12.9947 13.8091C12.8885 13.8917 12.794 13.9861 12.7114 14.0923C12.1157 14.652 11.443 15.1004 10.6932 15.4378C10.6814 15.4378 10.6696 15.4378 10.6578 15.4378C11.4057 14.7316 12.1729 14.0411 12.9593 13.3665C13.549 12.8007 14.086 12.1929 14.5704 11.543C14.7767 11.2128 14.9596 10.8706 15.1192 10.5161ZM28.8574 11.543C28.8695 11.5133 28.8932 11.5015 28.9283 11.5076C29.5606 11.8531 30.186 12.2072 30.8049 12.5698C30.8215 12.6196 30.8569 12.6432 30.9111 12.6406C31.6182 13.1354 32.2201 13.7373 32.7169 14.4464C32.7668 14.5104 32.8079 14.5813 32.8408 14.6589C32.8568 14.5324 32.8391 14.4144 32.7877 14.3048C32.7852 14.2011 32.7619 14.1067 32.7169 14.0215C32.7201 13.9276 32.6964 13.845 32.6461 13.7737C32.4499 13.1452 32.1429 12.5786 31.7255 12.0741C31.7255 12.0623 31.7255 12.0505 31.7255 12.0387C31.8037 12.0838 31.8866 12.1192 31.9733 12.1449C31.99 12.1947 32.0254 12.2183 32.0796 12.2157C32.2109 12.3229 32.3526 12.4173 32.5045 12.499C32.5211 12.5488 32.5565 12.5724 32.6107 12.5698C33.3139 13.0901 33.8864 13.7274 34.328 14.4818C34.6771 15.1469 34.8364 15.855 34.806 16.6063C34.766 16.6817 34.7599 16.7643 34.7883 16.8542C34.8063 16.8178 34.824 16.7824 34.8414 16.7479C35.2015 15.7985 35.2546 14.8307 35.0007 13.8445C34.9175 13.5887 34.8173 13.3409 34.6998 13.1009C35.7273 14.1295 36.1401 15.3687 35.939 16.8188C35.9068 16.9049 35.8714 16.9934 35.8328 17.0843C35.9157 17.0903 35.9628 17.0489 35.9744 16.9604C36.3947 16.4744 36.6486 15.9079 36.7357 15.2608C36.9464 15.5851 37.088 15.9392 37.1606 16.323C37.2601 16.7422 37.3015 17.1671 37.2845 17.5977C37.259 17.6586 37.2353 17.7235 37.2137 17.7925C37.2668 17.8132 37.3022 17.7955 37.3199 17.7394C37.6535 17.2343 37.8542 16.6796 37.9219 16.0752C37.9456 16.1224 37.969 16.1696 37.9927 16.2168C38.0373 16.7009 38.0373 17.1848 37.9927 17.6685C37.9477 17.7537 37.9244 17.8481 37.9219 17.9518C37.7505 18.4716 37.4789 18.9319 37.1075 19.3327C37.013 19.4035 36.9305 19.4861 36.8596 19.5806C36.8359 19.5806 36.8242 19.5924 36.8242 19.616C36.6964 19.7038 36.5665 19.7923 36.4347 19.8815C36.4524 19.8992 36.4701 19.917 36.4879 19.9347C36.5948 19.9101 36.6953 19.8747 36.7888 19.8284C37.4609 19.6223 38.0862 19.3213 38.6654 18.9255C38.7777 18.8547 38.8719 18.7662 38.9487 18.66C38.9724 18.66 38.9841 18.6718 38.9841 18.6954C38.4487 20.5284 37.3511 21.9094 35.6912 22.8381C35.6186 22.8544 35.5478 22.878 35.4787 22.9089C35.4316 22.9325 35.4316 22.9561 35.4787 22.9797C35.6158 22.9553 35.7453 22.9199 35.8682 22.8735C37.0569 22.5864 38.072 22.0081 38.9133 21.1385C38.937 21.1385 38.9487 21.1503 38.9487 21.1739C38.3708 22.5836 37.474 23.7461 36.2577 24.6616C35.4582 25.1108 34.6201 25.459 33.7437 25.7061C33.64 25.7084 33.5458 25.7321 33.4605 25.777C33.2144 25.8239 32.9665 25.8593 32.7169 25.8832C32.5526 25.878 32.5409 25.9016 32.6815 25.954C33.9261 26.1336 35.1537 26.0509 36.3639 25.7061C36.3795 25.7038 36.3912 25.7097 36.3993 25.7238C36.3682 25.7489 36.3445 25.7784 36.3285 25.8124C35.8519 26.1986 35.3325 26.5231 34.7706 26.7861C33.6134 27.2721 32.4333 27.691 31.2298 28.0431C31.1427 28.0501 31.0602 28.0737 30.9819 28.1139C30.9862 28.1354 30.9982 28.1472 31.0173 28.1493C31.29 28.2303 31.5732 28.2657 31.8671 28.2555C32.4039 28.2401 32.935 28.1811 33.4605 28.0785C33.4842 28.0785 33.4959 28.0903 33.4959 28.1139C31.9432 28.8079 30.3616 29.4216 28.7512 29.9551C28.6216 29.963 28.5034 29.9984 28.3971 30.0613C28.3405 30.0518 28.2934 30.0637 28.2555 30.0967C28.1617 30.0935 28.0788 30.1171 28.0077 30.1675C27.9138 30.1644 27.831 30.1879 27.7598 30.2384C26.9387 30.4427 26.1123 30.6198 25.2812 30.7695C25.1446 30.7804 25.0146 30.804 24.8918 30.8403C24.407 30.8961 23.923 30.9551 23.44 31.0173C23.3456 31.0173 23.2512 31.0173 23.1568 31.0173C23.1683 30.704 23.1565 30.3971 23.1214 30.0967C23.0559 27.7147 22.7136 25.3777 22.0945 23.086C22.0977 22.9921 22.0741 22.9095 22.0237 22.8381C22.0285 22.7747 22.0167 22.7157 21.9883 22.6611C21.9849 22.5801 21.9613 22.5093 21.9175 22.4486C21.9207 22.3547 21.8971 22.2721 21.8467 22.2008C21.8499 22.1069 21.8263 22.0243 21.7759 21.9529C21.7791 21.859 21.7555 21.7764 21.705 21.705C21.7082 21.6111 21.6847 21.5285 21.6342 21.4572C21.6117 21.3378 21.594 21.2197 21.5811 21.1031C22.0072 20.064 22.6268 19.1611 23.44 18.3944C24.6343 17.4455 25.9328 17.2802 27.3349 17.8987C27.996 18.1951 28.5448 18.0593 28.9814 17.4915C29.6233 16.4564 29.8358 15.3352 29.6187 14.1278C29.5454 13.2081 29.2915 12.3465 28.8574 11.543ZM11.543 12.2511C11.149 13.6662 10.311 14.7343 9.02902 15.4556C8.6243 15.6641 8.2112 15.8411 7.78974 15.9867C8.19523 15.6008 8.65553 15.2939 9.17065 15.0661C9.7387 14.6988 10.2285 14.2444 10.6401 13.7029C10.9642 13.2317 11.2652 12.7477 11.543 12.2511ZM13.8799 13.5258C13.7906 13.7158 13.6785 13.8929 13.5435 14.0569C12.7495 14.8687 11.9411 15.6595 11.1181 16.4293C11.1181 16.4175 11.1181 16.4057 11.1181 16.3939C11.3406 16.0826 11.5707 15.7758 11.8085 15.4733C12.4855 14.8019 13.176 14.1528 13.8799 13.5258ZM6.62128 16.0752C6.65594 16.1858 6.66777 16.3039 6.65669 16.4293C6.60981 17.1195 6.30293 17.6565 5.73608 18.0403C5.62628 18.1236 5.50827 18.1413 5.382 18.0934C5.73332 17.3783 6.14642 16.7055 6.62128 16.0752ZM6.83373 17.3499C6.8634 17.362 6.87523 17.3856 6.86913 17.4207C6.69298 18.0574 6.31532 18.5295 5.73608 18.837C6.2228 18.43 6.58867 17.9342 6.83373 17.3499ZM8.17923 17.5269C8.18511 17.834 8.17923 18.1409 8.16152 18.4475C8.06606 18.9827 7.95396 19.5138 7.82515 20.0409C7.77473 20.1122 7.75115 20.1948 7.75433 20.2887C7.54514 20.9166 7.35631 21.554 7.18781 22.2008C7.13739 22.2721 7.1138 22.3547 7.11699 22.4486C7.07209 22.5338 7.04848 22.6282 7.04617 22.7319C7.03438 22.7319 7.02256 22.7319 7.01077 22.7319C7.08233 22.3393 7.17085 21.9498 7.27633 21.5634C7.47698 20.8671 7.6776 20.1707 7.87826 19.4744C7.98902 19.0551 8.06571 18.6302 8.10841 18.1997C8.13203 17.9754 8.15561 17.7512 8.17923 17.5269ZM6.97536 18.6954C6.97536 18.7072 6.97536 18.719 6.97536 18.7308C6.59355 18.8403 6.22768 18.9878 5.87771 19.1734C5.62504 19.3906 5.3831 19.6208 5.15185 19.8638C4.90417 20.1764 4.63861 20.4714 4.35517 20.749C4.60221 20.4248 4.84419 20.0943 5.08104 19.7576C5.4001 19.4147 5.76009 19.1255 6.16098 18.8901C6.43486 18.8327 6.70633 18.7678 6.97536 18.6954ZM3.43457 19.8284C3.20697 20.2569 2.9237 20.6464 2.58478 20.9969C2.47855 21.0795 2.38412 21.1739 2.30151 21.2802C2.13056 21.4069 1.95353 21.525 1.7704 21.6342C1.69126 21.6447 1.62044 21.6329 1.55795 21.5988C1.64703 21.5898 1.72968 21.5603 1.8058 21.5103C2.39258 20.9885 2.93549 20.4279 3.43457 19.8284Z" fill="#00AAE6"/>
</g>
</svg>
